<svg width="10" height="7" viewBox="0 0 10 7" fill="none" xmlns="http://www.w3.org/2000/svg">
<path d="M2.5 0.5C2.5 0.223867 2.72387 0 3 0H9.5C9.77613 0 10 0.223867 10 0.5C10 0.776133 9.77613 1 9.5 1H3C2.72387 1 2.5 0.776113 2.5 0.5ZM9.5 3H0.5C0.223867 3 0 3.22389 0 3.5C0 3.77613 0.223867 4 0.5 4H9.5C9.77613 4 10 3.77613 10 3.5C10 3.22389 9.77613 3 9.5 3ZM9.5 6H5C4.72389 6 4.5 6.22387 4.5 6.5C4.5 6.77611 4.72389 7 5 7H9.5C9.77613 7 10 6.77611 10 6.5C10 6.22387 9.77613 6 9.5 6Z" fill="black"/>
</svg>
