<svg width="10" height="11" viewBox="0 0 10 11" fill="none" xmlns="http://www.w3.org/2000/svg">
<path d="M7.95464 10.9092H2.04554C1.41918 10.9092 0.90918 10.3992 0.90918 9.7728V3.40916C0.90918 3.2837 1.011 3.18188 1.13645 3.18188C1.26191 3.18188 1.36373 3.2837 1.36373 3.40916V9.7728C1.36373 10.1487 1.66963 10.4546 2.04554 10.4546H7.95464C8.33055 10.4546 8.63646 10.1487 8.63646 9.7728V3.40916C8.63646 3.2837 8.73828 3.18188 8.86373 3.18188C8.98919 3.18188 9.091 3.2837 9.091 3.40916V9.7728C9.091 10.3992 8.581 10.9092 7.95464 10.9092Z" fill="black"/>
<path d="M9.77273 3.63638H0.227273C0.101818 3.63638 0 3.53456 0 3.4091V2.50001C0 1.87365 0.51 1.36365 1.13636 1.36365H8.86364C9.49001 1.36365 10 1.87365 10 2.50001V3.4091C10 3.53456 9.89819 3.63638 9.77273 3.63638ZM0.454546 3.18183H9.54546V2.50001C9.54546 2.1241 9.23955 1.81819 8.86364 1.81819H1.13636C0.760455 1.81819 0.454546 2.1241 0.454546 2.50001V3.18183Z" fill="black"/>
<path d="M7.04524 1.81818C6.91978 1.81818 6.81796 1.71636 6.81796 1.59091V0.681819C6.81796 0.556364 6.71614 0.454546 6.59069 0.454546H3.40887C3.28341 0.454546 3.1816 0.556364 3.1816 0.681819V1.59091C3.1816 1.71636 3.07978 1.81818 2.95432 1.81818C2.82887 1.81818 2.72705 1.71636 2.72705 1.59091V0.681819C2.72705 0.305909 3.03296 0 3.40887 0H6.59069C6.9666 0 7.27251 0.305909 7.27251 0.681819V1.59091C7.27251 1.71636 7.17069 1.81818 7.04524 1.81818Z" fill="black"/>
<path d="M5.00022 9.09091C4.87477 9.09091 4.77295 8.98909 4.77295 8.86364V5.22727C4.77295 5.10182 4.87477 5 5.00022 5C5.12568 5 5.22749 5.10182 5.22749 5.22727V8.86364C5.22749 8.98909 5.12568 9.09091 5.00022 9.09091Z" fill="black"/>
<path d="M2.95432 9.09091C2.82887 9.09091 2.72705 8.98909 2.72705 8.86364V5.22727C2.72705 5.10182 2.82887 5 2.95432 5C3.07978 5 3.1816 5.10182 3.1816 5.22727V8.86364C3.1816 8.98909 3.07978 9.09091 2.95432 9.09091Z" fill="black"/>
<path d="M7.04563 9.09091C6.92018 9.09091 6.81836 8.98909 6.81836 8.86364V5.22727C6.81836 5.10182 6.92018 5 7.04563 5C7.17109 5 7.27291 5.10182 7.27291 5.22727V8.86364C7.27291 8.98909 7.17109 9.09091 7.04563 9.09091Z" fill="black"/>
</svg>
